# xmcd
#
# Track frame offsets: 
#        187
#        32725
#        71870
#        100525
#        135532
#        188657
#        240807
#
# Disc length: 3692 seconds
#
# Revision: 0
# Processed by: cddbd v1.5.2PL0 Copyright (c) Steve Scherf et al.
# Submitted via: ExactAudioCopy v0.99pb5
#
DISCID=500e6a07
DTITLE=Logik Freaks - Temptations Of Logik Freaks - One Fine Day
DYEAR=1995
DGENRE=Electronic
TTITLE0=Tekno Prisoner/Preacher
TTITLE1=Deep, Space, Pilot
TTITLE2=Tube Song
TTITLE3=One Fine Day, In The Park
TTITLE4=One Fine Day, In The Park (Flow Mix)
TTITLE5=One Fine Day, In The Park (Thomas Fehlmann Mix Updated #1)
TTITLE6=One Fine Day, In The Park (Sun Electric Mix)
EXTD=
EXTT0=
EXTT1=
EXTT2=
EXTT3=
EXTT4=
EXTT5=
EXTT6=
PLAYORDER=
